HIERARCHY
ROOT hip
{
	OFFSET 0.000000 0.000000 0.000000 
	CHANNELS 6 Xposition Yposition Zposition Xrotation Zrotation Yrotation
	JOINT abdomen
	{
		OFFSET 0.000000 3.402643 0.000000 
		CHANNELS 3 Xrotation Zrotation Yrotation
		JOINT chest
		{
			OFFSET 0.000000 8.438565 -0.680529 
			CHANNELS 3 Xrotation Zrotation Yrotation
			JOINT neck
			{
				OFFSET 0.000000 10.207942 -0.272212 
				CHANNELS 3 Xrotation Zrotation Yrotation
				JOINT head
				{
					OFFSET 0.000000 3.130431 0.000000 
					CHANNELS 3 Xrotation Zrotation Yrotation
					End Site
					{
						OFFSET 0.000000 3.130435 0.000000 
					}
				}
			}
			JOINT lCollar
			{
				OFFSET 3.470700 6.669187 -0.816635 
				CHANNELS 3 Yrotation Zrotation Xrotation
				JOINT lShldr
				{
					OFFSET 3.198488 0.000000 0.000000 
					CHANNELS 3 Zrotation Yrotation Xrotation
					JOINT lForeArm
					{
						OFFSET 10.139888 0.000000 0.000000 
						CHANNELS 3 Yrotation Zrotation Xrotation
						JOINT lHand
						{
							OFFSET 8.370511 0.000000 0.000000 
							CHANNELS 3 Zrotation Yrotation Xrotation
							End Site
							{
								OFFSET 4.083176 0.000000 0.000000 
							}
						}
					}
				}
			}
			JOINT rCollar
			{
				OFFSET -3.470700 6.669187 -0.816635 
				CHANNELS 3 Yrotation Zrotation Xrotation
				JOINT rShldr
				{
					OFFSET -3.198488 0.000000 0.000000 
					CHANNELS 3 Zrotation Yrotation Xrotation
					JOINT rForeArm
					{
						OFFSET -10.139888 0.000000 0.000000 
						CHANNELS 3 Yrotation Zrotation Xrotation
						JOINT rHand
						{
							OFFSET -5.570512 0.000000 0.000000 
							CHANNELS 3 Zrotation Yrotation Xrotation
							End Site
							{
								OFFSET -4.083176 0.000000 0.000000 
							}
						}
					}
				}
			}
		}
	}
	JOINT lThigh
	{
		OFFSET 5.308129 -1.633274 1.361059 
		CHANNELS 3 Xrotation Zrotation Yrotation
		JOINT lShin
		{
			OFFSET -2.041588 -20.007561 0.000000 
			CHANNELS 3 Xrotation Zrotation Yrotation
			JOINT lFoot
			{
				OFFSET 0.000000 -19.190928 -1.224953 
				CHANNELS 3 Xrotation Yrotation Zrotation
				End Site
				{
					OFFSET 0.000000 -2.449906 4.627600 
				}
			}
		}
	}
	JOINT rThigh
	{
		OFFSET -5.308129 -1.633274 1.361059 
		CHANNELS 3 Xrotation Zrotation Yrotation
		JOINT rShin
		{
			OFFSET 2.041588 -20.007561 0.000000 
			CHANNELS 3 Xrotation Zrotation Yrotation
			JOINT rFoot
			{
				OFFSET 0.000000 -19.190928 -1.224953 
				CHANNELS 3 Xrotation Yrotation Zrotation
				End Site
				{
					OFFSET 0.000000 -2.449906 4.627600 
				}
			}
		}
	}
}
MOTION
Frames: 9
Frame Time: 0.016667
-133.141754 39.086384 83.727135 5.108974 1.410392 112.050117 49.927254 5.579421 -27.091600 -20.839844 0.000000 0.000000 -29.695900 22.707376 3.825017 8.603792 -1.684224 0.126603 -4.754609 -0.109183 -0.002653 -75.096626 -60.834385 31.708498 -58.574478 -25.564501 20.444277 -156.987320 147.618240 183.604538 4.754609 0.109183 -0.002672 84.221939 -41.006805 -25.859745 2.099314 0.390133 42.425991 -175.891190 -180.084518 -237.824005 5.242152 24.841457 17.413649 61.830238 -4.920402 -0.469459 -22.354174 4.467606 -7.706323 -60.750156 -7.890205 7.949027 36.064735 -9.795249 -3.780087 -7.754889 -25.526976 13.207227 
-124.931259 38.456070 82.358200 7.516182 8.065796 108.727058 48.296116 5.136639 -30.201818 -20.839844 0.000000 0.000000 -19.204035 21.451784 12.980001 8.603792 -1.684224 0.126603 -4.754609 -0.109183 -0.002653 -65.951210 -58.388718 28.536230 -73.346199 -35.154007 18.439661 -150.832581 143.178299 179.004608 4.754609 0.109183 -0.002672 80.583939 -52.856899 -31.831602 2.199627 0.468898 40.578312 -177.367828 -176.523575 -231.413132 27.654102 23.485771 22.643946 50.591347 -4.771107 0.311143 -4.131164 2.757757 -2.513510 -42.434246 -6.308849 10.610437 0.424880 -13.233941 -0.872563 1.098958 -28.752932 15.812243 
-116.523605 37.809395 80.946892 10.483698 14.702877 106.342461 46.105141 4.258378 -33.071072 -20.839844 0.000000 0.000000 -9.527781 18.046234 21.318937 8.603792 -1.684224 0.126603 -4.754609 -0.109183 -0.002653 -64.643494 -47.094902 27.561380 -80.659210 -40.833672 19.108625 -149.683273 142.692047 172.614441 4.754609 0.109183 -0.002672 74.121353 -57.385303 -32.687477 2.489938 0.455001 29.943188 176.230484 -170.322098 -214.022675 45.037331 18.633410 23.380772 41.103062 -5.381117 1.174384 8.950776 2.091781 4.312739 -32.829338 -4.326239 11.089812 -1.576392 -14.255697 -0.791203 5.268489 -28.420759 15.681545 
-108.479134 37.455429 79.624443 11.517081 18.138708 102.948090 42.510464 4.268825 -33.206764 -20.839844 0.000000 0.000000 -5.759595 14.774107 27.111959 8.603792 -1.684224 0.126603 -4.754609 -0.109183 -0.002653 -70.086349 -30.982103 26.377939 -68.792809 -39.781048 29.653738 -150.462006 146.839600 169.703751 4.754609 0.109183 -0.002672 62.620617 -50.388950 -26.633104 2.638318 0.067624 9.307034 169.744812 -159.204712 -186.410843 48.882263 14.424185 20.846697 43.811913 -7.599361 3.804230 9.038193 3.313080 4.199296 -34.582558 -1.563247 8.189605 20.941465 -11.233798 -2.785354 7.958883 -22.718748 10.684116 
-101.247833 37.604568 78.492020 9.124251 18.045717 95.613983 38.743965 5.561692 -28.493952 -20.839844 0.000000 0.000000 -7.740861 12.872483 31.629639 8.603792 -1.684224 0.126603 -4.754609 -0.109183 -0.002653 -76.100868 -15.330091 18.973257 -45.622658 -26.060989 36.466965 -157.587006 155.072235 174.410721 4.754609 0.109183 -0.002672 52.167728 -34.653229 -21.862879 2.301862 -0.232737 -9.530180 164.740311 -155.803864 -163.479218 38.376366 11.543616 17.833368 57.962070 -11.741624 6.663040 3.793271 7.071778 0.047498 -37.597130 -0.097370 5.795296 36.504402 -2.661760 -2.253771 13.774599 -16.115471 -2.650634 
-95.019218 38.517365 77.691093 5.469918 16.851141 86.807411 37.585560 6.567947 -21.027395 -20.839844 0.000000 0.000000 -10.945645 11.939430 34.249531 8.603792 -1.684224 0.126603 -4.754609 -0.109183 -0.002653 -76.631958 -4.803030 5.545187 -31.394899 -11.088091 19.770500 -178.300507 152.639984 185.669006 4.754609 0.109183 -0.002672 55.039776 -28.176891 -22.707565 31.167509 1.145107 -17.658991 161.497726 -146.583160 -157.739868 18.516722 12.937265 17.321693 75.202362 -13.322748 4.420076 -0.284438 8.736759 -0.168533 -38.018906 2.029678 5.059530 48.414124 3.531549 -0.769466 5.172198 -11.171804 -7.347199 
-89.829575 40.356735 77.192558 3.271997 16.644251 80.725937 38.384590 5.528330 -13.055355 -20.839844 0.000000 0.000000 -13.467193 9.949991 32.745186 8.603792 -1.684224 0.126603 -4.754609 -0.109183 -0.002653 -70.399399 3.169450 -6.122595 -31.929684 -6.127916 0.141167 165.166519 142.518661 200.190613 4.754609 0.109183 -0.002672 54.324322 -17.596151 -18.017151 48.363499 3.696657 -19.573292 161.420685 -141.710632 -152.844681 -6.454648 18.011343 14.751211 87.350868 -9.470855 -0.389302 -2.423603 5.590303 3.541933 -32.127457 1.504135 3.284911 52.092312 6.680467 0.367439 -4.844757 -5.823328 -12.101161 
-85.723312 42.856049 76.657242 3.646109 18.032207 77.352669 39.658249 1.353509 -3.428244 -20.839844 0.000000 0.000000 -14.520407 6.240873 26.628323 8.603792 -1.684224 0.126603 -4.754609 -0.109183 -0.002653 -57.203682 3.993448 -4.008970 -44.290890 -14.071561 -3.920353 160.016907 142.231201 212.257248 4.754609 0.109183 -0.002672 46.348640 -10.254869 -14.741632 62.904377 8.050042 -20.696033 159.204468 -140.153824 -149.619934 -31.806583 19.560677 7.729723 91.255310 -3.808438 -2.816792 -3.444032 2.227061 4.344008 -22.405508 -2.030948 1.318782 48.441135 6.659214 1.307914 -8.186801 -2.388438 -12.984056 
-82.290787 46.228821 75.946739 6.144806 20.302486 76.214203 40.554279 -3.959317 6.132927 -20.839844 0.000000 0.000000 -12.505742 2.225471 17.824291 8.603792 -1.684224 0.126603 -4.754609 -0.109183 -0.002653 -43.898438 -8.314447 -0.983629 -63.419910 -23.839746 -11.204257 160.197845 143.596924 219.535309 4.754609 0.109183 -0.002672 32.683060 -4.895958 -14.984743 75.502808 11.092700 -21.657372 152.302856 -140.194916 -149.493713 -51.339523 16.266571 1.461473 89.559410 0.585851 -3.405179 -3.836970 0.874309 3.327185 -9.788583 -8.255909 -2.934855 36.740356 4.754909 2.203183 -3.053405 1.005954 -10.211382 
